<svg width="412" height="412" viewBox="0 0 412 412" fill="none" xmlns="http://www.w3.org/2000/svg">
<rect width="412" height="412" rx="100" fill="#F8FAFC"/>
<path d="M102.672 61.1221C91.6517 61.1221 81.0832 65.4997 73.291 73.2919C65.4987 81.0842 61.1211 91.6527 61.1211 102.673V144.223C61.1211 155.243 65.4987 165.812 73.291 173.604C81.0832 181.396 91.6517 185.774 102.672 185.774H144.222C155.242 185.774 165.811 181.396 173.603 173.604C181.395 165.812 185.773 155.243 185.773 144.223V102.673C185.773 91.6527 181.395 81.0842 173.603 73.2919C165.811 65.4997 155.242 61.1221 144.222 61.1221H102.672ZM102.672 227.324C91.6517 227.324 81.0832 231.702 73.291 239.494C65.4987 247.286 61.1211 257.855 61.1211 268.875V310.425C61.1211 321.445 65.4987 332.014 73.291 339.806C81.0832 347.598 91.6517 351.976 102.672 351.976H144.222C155.242 351.976 165.811 347.598 173.603 339.806C181.395 332.014 185.773 321.445 185.773 310.425V268.875C185.773 257.855 181.395 247.286 173.603 239.494C165.811 231.702 155.242 227.324 144.222 227.324H102.672ZM227.323 102.673C227.323 91.6527 231.701 81.0842 239.493 73.2919C247.285 65.4997 257.854 61.1221 268.874 61.1221H310.424C321.444 61.1221 332.013 65.4997 339.805 73.2919C347.597 81.0842 351.975 91.6527 351.975 102.673V144.223C351.975 155.243 347.597 165.812 339.805 173.604C332.013 181.396 321.444 185.774 310.424 185.774H268.874C257.854 185.774 247.285 181.396 239.493 173.604C231.701 165.812 227.323 155.243 227.323 144.223V102.673ZM227.323 268.875C227.323 257.855 231.701 247.286 239.493 239.494C247.285 231.702 257.854 227.324 268.874 227.324H310.424C321.444 227.324 332.013 231.702 339.805 239.494C347.597 247.286 351.975 257.855 351.975 268.875V310.425C351.975 321.445 347.597 332.014 339.805 339.806C332.013 347.598 321.444 351.976 310.424 351.976H268.874C257.854 351.976 247.285 347.598 239.493 339.806C231.701 332.014 227.323 321.445 227.323 310.425V268.875Z" fill="#101729"/>
</svg>
