<?xml version="1.0" standalone="no"?>
<!DOCTYPE svg PUBLIC "-//W3C//DTD SVG 20010904//EN"
 "http://www.w3.org/TR/2001/REC-SVG-20010904/DTD/svg10.dtd">
<svg version="1.0" xmlns="http://www.w3.org/2000/svg"
 width="700.000000pt" height="700.000000pt" viewBox="0 0 700.000000 700.000000"
 preserveAspectRatio="xMidYMid meet">
<metadata>
Created by potrace 1.14, written by Peter Selinger 2001-2017
</metadata>
<g transform="translate(0.000000,700.000000) scale(0.100000,-0.100000)"
fill="#000000" stroke="none">
<path d="M1590 5944 c-36 -7 -107 -34 -158 -60 -199 -98 -345 -291 -382 -504
-7 -44 -10 -213 -8 -515 l3 -450 27 -80 c39 -115 92 -199 180 -287 61 -61 96
-86 170 -122 165 -81 162 -81 678 -81 513 0 510 0 670 78 69 33 102 58 175
132 74 73 99 106 132 175 78 160 78 157 78 670 0 510 0 511 -74 665 -90 191
-269 332 -478 379 -98 22 -911 22 -1013 0z"/>
<path d="M4405 5941 c-234 -58 -424 -228 -500 -448 -42 -121 -47 -184 -43
-635 5 -472 5 -476 77 -623 88 -179 246 -309 446 -367 78 -23 90 -23 535 -23
506 0 511 1 658 70 177 84 299 223 369 420 l28 80 3 449 c4 519 1 549 -74 705
-38 78 -60 108 -132 181 -73 73 -102 95 -182 134 -150 73 -171 76 -675 75
-382 0 -449 -3 -510 -18z"/>
<path d="M1632 3129 c-149 -26 -281 -96 -392 -208 -60 -61 -85 -95 -122 -171
-76 -155 -78 -176 -78 -672 0 -497 3 -519 76 -668 39 -79 62 -110 134 -181 72
-73 101 -94 180 -132 157 -76 186 -79 706 -75 l449 3 80 28 c197 70 335 192
421 372 68 143 69 150 69 655 0 445 0 457 -23 535 -58 201 -186 356 -367 445
-149 74 -148 74 -640 76 -242 1 -464 -2 -493 -7z"/>
<path d="M4445 3125 c-271 -50 -470 -231 -557 -505 -23 -74 -23 -80 -23 -535
0 -357 3 -472 14 -515 62 -248 234 -435 476 -518 l80 -27 480 0 c475 0 481 0
555 23 124 39 206 88 296 177 90 89 141 171 183 293 l26 77 0 485 0 485 -27
80 c-88 259 -302 441 -569 484 -96 16 -846 13 -934 -4z"/>
</g>
</svg>
